The F1 Show

Aired: 15th March 2013. 9:30 am

Natalie Pinkham and Ted Kravitz bring you all the latest stories and features from Melbourne, Australia.

To reduce SKY's LIVE sync errors with audio during add-breaks, commercials have been left intact to reduce
playback problems as the live stream switches from Dolby Digitalto Standard Stereo output during add breaks
and vice versa, which plays havoc with encoding the feed as AC3 Digital.


All torrents for F1 2013 are MKV format with 720p resolution & AC3 Dolby Digital Audio.
These video files should play smoothly with the standard media players such as VLC, WMP, KM Player, WMC, MP-HC.

**For those having mkv playback issues on Windows 7 or 8, I recommend Shark Codec Packs which are available free here:

FOR ALL YOUR LATEST F1 NEWS, GOSSIP AND DISCUSSION PLUS FULL TORRENT INFORMATION IN DETAIL AND MUCH MORE PLEASE VISIT MY FORUM: http://www.f1racingleague.co.uk/f82-formula-1-2013-torrents

Follow my Twitter For All F1 Info here:

As Usual, Please feel free to leave your comments or suggestions, or just simply a 'thanks' within the thread.

Much Appreciated,

Thank you


Theblacknight


File Details:

Complete name : R:Recorded TVThe F1 Show 15.03.13F1 Show (HD.720p.H264.AC3) 15.03.13_0001.mkv
Format : Matroska
Format version : Version 2
File size : 1.44 GiB
Duration : 55mn 52s
Overall bit rate : 3 681 Kbps
Writing application : libmatroska 1.3.0
Writing library : SolveigMM Matroska Muxer Version 1.0.1208.20

Video
ID : 1
Format : AVC
Format/Info : Advanced Video Codec
Format profile : High@L3.1
Format settings, CABAC : Yes
Format settings, ReFrames : 4 frames
Codec ID : V_MPEG4/ISO/AVC
Duration : 55mn 52s
Bit rate : 3 223 Kbps
Width : 1 280 pixels
Height : 720 pixels
Display aspect ratio : 16:9
Frame rate mode : Constant
Frame rate : 25.000 fps
Color space : YUV
Chroma subsampling : 4:2:0
Bit depth : 8 bits
Scan type : Progressive
Bits/(Pixel*Frame) : 0.140
Stream size : 1.26 GiB (88%)
Language : English
Default : No
Forced : No
Color primaries : BT.709
Transfer characteristics : BT.709
Matrix coefficients : BT.709

Audio
ID : 2
Format : AC-3
Format/Info : Audio Coding 3
Mode extension : CM (complete main)
Format settings, Endianness : Big
Codec ID : A_AC3
Duration : 55mn 52s
Bit rate mode : Constant
Bit rate : 384 Kbps
Channel(s) : 2 channels
Channel positions : Front: L R
Sampling rate : 48.0 KHz
Bit depth : 16 bits
Compression mode : Lossy
Delay relative to video : 29ms
Stream size : 153 MiB (10%)
Language : English
Default : No
Forced : No